<?xml version="1.0" standalone="no"?><!DOCTYPE svg PUBLIC "-//W3C//DTD SVG 1.1//EN" "http://www.w3.org/Graphics/SVG/1.1/DTD/svg11.dtd"><svg t="1562575171987" class="icon" viewBox="0 0 1024 1024" version="1.1" xmlns="http://www.w3.org/2000/svg" p-id="1151" xmlns:xlink="http://www.w3.org/1999/xlink" width="200" height="200"><defs><style type="text/css"></style></defs><path d="M940.722 293.258c-37.165-67.31-90.357-123.779-153.807-163.291-6.465-4.115-12.219-6.855-19.291-6.855-17.875 0-32.417 15.394-32.417 34.316 0 12.843 6.675 24.058 18.24 30.722 111.854 69.282 181.34 197.54 181.34 334.718 0 137.05-69.419 265.25-181.102 334.53-9.244 5.387-19.122 16.418-19.122 31.228 0 18.922 14.569 34.316 32.476 34.316 7.545 0 13.502-3.259 18.971-6.605 63.726-39.47 117.14-95.978 154.47-163.413 38.461-69.481 58.79-149.031 58.79-230.057 0-80.838-20.245-160.237-58.549-229.607zM822.659 522.868c0-47.698-11.982-94.53-34.647-135.433-21.999-39.697-53.47-72.948-91.01-96.159l-0.115-0.068c-1.092-0.603-10.88-5.889-18.15-5.889-18.004 0-32.652 15.446-32.652 34.431 0 12.444 6.187 23.971 16.165 30.094 58.556 35.293 94.933 101.589 94.933 173.022 0 72.924-37.502 139.926-97.872 174.863l-0.107 0.065c-9.753 6.255-15.575 17.262-15.575 29.443 0 19.019 14.621 34.492 32.566 34.492l0.174 0.001c0.001 0 0.001 0 0.001 0 7.57 0 16.129-4.449 16.49-4.638l0.123-0.068c79.988-47.381 129.677-137.104 129.677-234.156zM552.924 46.447c-5.267-2.697-11.149-4.122-17.004-4.122-8.806 0-17.45 3.191-24.329 8.983l-0.155 0.13c-5.617 4.734-56.48 47.498-111.867 90.777-100.067 78.254-130.412 92.228-136.375 94.48l-127.095 0c-0.835 0-1.585 0.057-2.283 0.118l-65.043 0c-17.907 0-32.475 15.38-32.475 34.287l0 504.003c0 18.887 14.569 34.254 32.475 34.254l218.045 0.063c5.794 2.411 34.358 16.833 123.05 93.603 30.272 26.186 65.253 57.693 98.498 88.718 0.882 0.823 1.456 1.357 1.698 1.579l0 0.001c7.114 6.738 16.289 10.448 25.837 10.448 5.446 0 10.986-1.263 16.021-3.657 14.377-6.863 24.035-21.933 24.035-37.494 0.003-1.682 0.311-168.183 0.311-171.503 0-3.387-1.389-700.607-1.403-707.645-0.001-15.887-8.409-30.074-21.943-37.026zM510.789 785.578l-0.498 109.782c-16.563-14.851-32.59-28.932-47.709-41.909-121.367-104.343-151.79-113.074-172.546-113.074-0.412 0-0.75 0.051-0.997 0.09-0.064 0.01-0.129 0.022-0.148 0.028-0.067-0.005-0.132-0.018-0.196-0.028-0.246-0.038-0.585-0.09-0.996-0.09l-163.929 0c-18.857 0-22.928-4.57-22.928-25.729l0-386.803c0-14.849 1.587-21.844 16.091-21.844l147.682 0c20.204 0 51.029-8.629 183.664-111.759 20.243-15.74 41.577-32.683 61.99-49.232 0.053 63.942 0.522 638.034 0.522 640.57z" p-id="1152"></path></svg>