<?xml version="1.0" standalone="no"?><!DOCTYPE svg PUBLIC "-//W3C//DTD SVG 1.1//EN" "http://www.w3.org/Graphics/SVG/1.1/DTD/svg11.dtd"><svg t="1562132799562" class="icon" viewBox="0 0 1024 1024" version="1.1" xmlns="http://www.w3.org/2000/svg" p-id="8569" xmlns:xlink="http://www.w3.org/1999/xlink" width="200" height="200"><defs><style type="text/css"></style></defs><path d="M64.080969 186.502671 64.080969 473.364051l0.224104 0c0 2.680039-0.224104 5.395894-0.224104 8.433066 0 70.629617 57.145511 126.595256 127.774105 126.595256 70.628594 0 127.779222-55.965639 127.779222-126.595256 0-3.037173 0-5.753027-0.257873-8.433066l0.257873 0L319.634296 182.988638c0-12.614296-10.128685-22.933315-22.650883-22.933315L94.715687 160.055322C77.753363 160.055322 64.080969 169.799244 64.080969 186.502671L64.080969 186.502671zM383.521349 187.077769l0 286.86138 0.224104 0c0 2.680039-0.224104 5.395894-0.224104 8.433066 0 70.628594 57.146535 126.595256 127.774105 126.595256s127.779222-55.966663 127.779222-126.595256c0-3.037173 0-5.753027-0.258896-8.433066l0.258896 0L639.074675 183.53406c0-12.618389-10.128685-22.937408-22.650883-22.937408L414.156066 160.596651C397.193743 160.596651 383.521349 170.33955 383.521349 187.077769L383.521349 187.077769zM704.272583 187.077769l0 286.86138 0.225127 0c0 2.680039-0.225127 5.395894-0.225127 8.433066 0 70.628594 57.146535 126.595256 127.774105 126.595256s127.774105-55.966663 127.774105-126.595256c0-3.037173 0-5.753027-0.25378-8.433066l0.25378 0L959.820794 183.53406c0-12.618389-10.124592-22.937408-22.645766-22.937408L734.908324 160.596651C717.946001 160.596651 704.272583 170.33955 704.272583 187.077769L704.272583 187.077769zM798.795377 863.945701l-543.048133 0c-35.236526 0-63.892169-28.656667-63.892169-63.893192l0-95.828532c0-17.672498 14.310937-31.946596 31.945573-31.946596s31.945573 14.274098 31.945573 31.946596l0 95.828532 543.048133 0 0-95.828532c0-17.672498 14.277168-31.946596 31.94148-31.946596 17.669428 0 31.946596 14.274098 31.946596 31.946596l0 95.828532C862.682429 835.289034 834.025763 863.945701 798.795377 863.945701L798.795377 863.945701zM798.795377 863.945701" p-id="8570"></path></svg>