<?xml version="1.0" standalone="no"?><!DOCTYPE svg PUBLIC "-//W3C//DTD SVG 1.1//EN" "http://www.w3.org/Graphics/SVG/1.1/DTD/svg11.dtd"><svg t="1562472440531" class="icon" viewBox="0 0 1024 1024" version="1.1" xmlns="http://www.w3.org/2000/svg" p-id="5437" xmlns:xlink="http://www.w3.org/1999/xlink" width="200" height="200"><defs><style type="text/css"></style></defs><path d="M533.719 631.811h-73.151l-6.594 37.418 105.147 0.308 48.081-84.809h-45.394z" p-id="5438"></path><path d="M510.587 608.191l40.838-17.635 36.208-205.348h-37.727zM501.368 398.704l-31.051 176.057 38.551-15.949 28.234-160.108zM596.036 399.318l-29.748 168.696 38.545-15.951 26.937-152.745zM430.521 516.944l-16.317 141.244h36.653l15.55-141.244z" p-id="5439"></path><path d="M462.59 502.068l20.998-35.58h-48.309l7.544-42.787 40.813-4.447 14.318-37.726-136.505 12.268-6.764 38.341 48.199-4.601-6.865 38.952h-49.841l-6.277 35.58h49.843l-29.45 167.009 41.828-14.57 26.881-152.439z" p-id="5440"></path><path d="M349.095 658.648l34.034-141.704h-35.886l-34.954 141.704zM746.958 635.798h-30.063l-6.054 34.352h31.593l53.408-35.885 10.713-60.732h98.456l22.115-37.573H813.177l4.464-25.304h-48.616l-4.463 25.304H651.688l-6.625 37.573h112.876z" p-id="5441"></path><path d="M854.144 509.736h78.984l-90.321-64.41 101.407-61.958h-78.213l-59.573 36.039-47.669-34.045h-77.447l82.75 59.503-113.157 68.552h80.672l68.96-42.328zM816.926 586.877l36.055 80.818h54.442l-35.595-80.818zM672.243 667.236l60.416-83.427h-52.296l-59.955 83.427zM216.088 355.57l-55.992 153.061 87.931-14.054-88.185 191.467 31.644-145.03-92.265 6.94z" p-id="5442"></path></svg>