<?xml version="1.0" standalone="no"?><!DOCTYPE svg PUBLIC "-//W3C//DTD SVG 1.1//EN" "http://www.w3.org/Graphics/SVG/1.1/DTD/svg11.dtd"><svg t="1592356930058" class="icon" viewBox="0 0 1024 1024" version="1.1" xmlns="http://www.w3.org/2000/svg" p-id="1171" xmlns:xlink="http://www.w3.org/1999/xlink" width="200" height="200"><defs><style type="text/css"></style></defs><path d="M875.25707555 915.07981591L158.7511008 915.07981591c-65.95196363 0-119.41589585-53.46393222-119.41589586-119.41987008L39.33520494 258.28377684c0-65.95196363 53.46393222-119.41589585 119.41589586-119.41589585l716.50597475 0c65.94534077 0 119.41589585 53.46393222 119.41589585 119.41589585l0 537.37616899C994.67164709 861.61588499 941.20241632 915.07981591 875.25707555 915.07981591M158.7511008 855.36988153l716.50597475 0c32.97333318 0 59.70463585-26.73395258 59.70463585-59.7099357L934.96171269 377.70364692l-835.91789637 0 0 417.95629891c0 32.97730742 26.73262827 59.70993568 59.70993569 59.7099357L158.7511008 855.36988153zM875.25707555 198.57251684L158.7511008 198.57251684c-32.97333318 0-59.70596146 26.73262827-59.70596146 59.71126l0 59.70993569 835.91789637 0L934.96303701 258.28377684C934.96171269 225.30514511 908.23438298 198.57251684 875.25707555 198.57251684M188.60871856 556.82947845l298.54040307 0c16.48600444 0 29.85761648 13.36101494 29.85761647 29.85231793 0 16.48600444-13.37161333 29.85761648-29.85761647 29.85761647L188.60871856 616.53941414c-16.4926273 0-29.85761648-13.37161333-29.85761647-29.85761647C158.7511008 570.1904934 172.11608997 556.82947845 188.60871856 556.82947845M188.60871856 676.24272567l238.83576592 0c16.48600444 0 29.85231792 13.36234054 29.85231793 29.85231792 0 16.48732876-13.36631478 29.85761648-29.85231793 29.85761648L188.60871856 735.95266007c-16.4926273 0-29.85761648-13.37028772-29.85761647-29.85761648C158.7511008 689.60506493 172.11608997 676.24272567 188.60871856 676.24272567M606.56899171 556.82947845l59.70463584 0c16.48600444 0 29.85761648 13.36101494 29.85761647 29.85231793 0 16.48600444-13.37161333 29.85761648-29.85761647 29.85761647l-59.70463584 0c-16.49660154 0-29.85761648-13.37161333-29.85761648-29.85761647C576.71004963 570.1904934 590.07106457 556.82947845 606.56899171 556.82947845" p-id="1172"></path></svg>