<svg xmlns="http://www.w3.org/2000/svg" width="24" height="18" viewBox="0 0 24 18">
  <defs>
    <style>
      .cls-1 {
        fill: #bcbcbc;
      }
    </style>
  </defs>
  <g id="Camera" transform="translate(0 0)">
    <path id="Fill_125" data-name="Fill 125" class="cls-1" d="M20.25,18H17a2.5,2.5,0,0,1,2.5-2.5h.75a1.251,1.251,0,0,0,1.25-1.25v-8A1.252,1.252,0,0,0,20.25,5H17.283a1.758,1.758,0,0,1-1.5-.85l-.626-1.044A1.258,1.258,0,0,0,14.085,2.5H9.915a1.257,1.257,0,0,0-1.072.607L8.217,4.15a1.759,1.759,0,0,1-1.5.85H3.75A1.251,1.251,0,0,0,2.5,6.25v8A1.251,1.251,0,0,0,3.75,15.5H6.876A6.5,6.5,0,1,1,12,18H3.75A3.754,3.754,0,0,1,0,14.25v-8A3.754,3.754,0,0,1,3.75,2.5H6.292l.408-.68A3.749,3.749,0,0,1,9.915,0h4.169A3.75,3.75,0,0,1,17.3,1.821l.408.679H20.25A3.754,3.754,0,0,1,24,6.25v8A3.754,3.754,0,0,1,20.25,18ZM12,7.5a4,4,0,1,0,4,4A4,4,0,0,0,12,7.5Z" transform="translate(0)"/>
  </g>
</svg>
