<svg xmlns="http://www.w3.org/2000/svg" width="14.5" height="14.5" viewBox="0 0 14.5 14.5">
  <defs>
    <style>
      .cls-1 {
        fill: #082f40;
      }
    </style>
  </defs>
  <path id="Fill_120" data-name="Fill 120" class="cls-1" d="M11.432,14.5h-.178a2.589,2.589,0,0,1-2.54-3.1L9.06,9.677A2.59,2.59,0,0,1,11.6,7.6h1.162A5.516,5.516,0,0,0,7.25,1.726,5.515,5.515,0,0,0,1.739,7.6H2.9a2.59,2.59,0,0,1,2.54,2.081L5.783,11.4a2.59,2.59,0,0,1-2.54,3.1H2.587a.863.863,0,1,1,0-1.726h.656a.863.863,0,0,0,.847-1.032l-.346-1.726A.865.865,0,0,0,2.9,9.321H1.92L2.1,10.965a1.729,1.729,0,0,1-1.531,1.9L.043,8.026A7.241,7.241,0,0,1,7.25,0a7.24,7.24,0,0,1,7.207,8.026l-.45,4.163A2.585,2.585,0,0,1,11.432,14.5ZM11.6,9.321a.865.865,0,0,0-.847.694l-.345,1.726a.863.863,0,0,0,.847,1.032h.178A.862.862,0,0,0,12.29,12l.29-2.682Z"/>
</svg>
