<svg xmlns="http://www.w3.org/2000/svg" width="13" height="15" viewBox="0 0 13 15">
  <defs>
    <style>
      .cls-1 {
        fill: #ccc;
      }

      .cls-2 {
        fill: #29c78f;
      }
    </style>
  </defs>
  <g id="delete" transform="translate(0 0)">
    <path id="Path" class="cls-1" d="M5.645,1.071H.855A.875.875,0,0,0,0,1.964a.875.875,0,0,0,.855.893h9.408v9.464a.875.875,0,0,1-.855.893H3.592a.875.875,0,0,1-.855-.893V5.357A1.75,1.75,0,0,0,1.026,3.571v8.75A2.624,2.624,0,0,0,3.592,15H9.408a2.624,2.624,0,0,0,2.566-2.679V2.857h.171A.875.875,0,0,0,13,1.964a.875.875,0,0,0-.855-.893H7.355V.893a.856.856,0,1,0-1.711,0Z" transform="translate(0 0)"/>
    <path id="Path-2" data-name="Path" class="cls-2" d="M.873,8.077A.875.875,0,0,1,0,7.2V.878a.873.873,0,1,1,1.747,0V7.2A.876.876,0,0,1,.873,8.077Z" transform="translate(4.092 4.008)"/>
    <path id="Path-3" data-name="Path" class="cls-2" d="M.873,8.077A.875.875,0,0,1,0,7.2V.878a.873.873,0,1,1,1.747,0V7.2a.876.876,0,0,1-.873.878Z" transform="translate(7.161 4.008)"/>
  </g>
</svg>
