<svg xmlns="http://www.w3.org/2000/svg" xmlns:xlink="http://www.w3.org/1999/xlink" width="45" height="45" viewBox="0 0 45 45">
  <defs>
    <style>
      .cls-1 {
        fill: #2ea6ff;
      }

      .cls-2 {
        fill: none;
        stroke: #2ea6ff;
        stroke-linecap: round;
      }

      .cls-3, .cls-5 {
        fill: #fff;
      }

      .cls-4, .cls-5 {
        stroke: none;
      }

      .cls-6 {
        filter: url(#路径_1);
      }
    </style>
    <filter id="路径_1" x="0" y="0" width="45" height="45" filterUnits="userSpaceOnUse">
      <feOffset dy="1" input="SourceAlpha"/>
      <feGaussianBlur stdDeviation="4" result="blur"/>
      <feFlood flood-opacity="0.161"/>
      <feComposite operator="in" in2="blur"/>
      <feComposite in="SourceGraphic"/>
    </filter>
  </defs>
  <g id="组_145" data-name="组 145" transform="translate(-77 -298)">
    <g class="cls-6" transform="matrix(1, 0, 0, 1, 77, 298)">
      <g id="路径_1-2" data-name="路径 1" class="cls-1" transform="translate(12 11)">
        <path class="cls-4" d="M 10.50006008148193 20.50006103515625 C 4.986040115356445 20.50006103515625 0.5000600814819336 16.01408004760742 0.5000600814819336 10.50006008148193 C 0.5000600814819336 4.986040115356445 4.986040115356445 0.5000600814819336 10.50006008148193 0.5000600814819336 C 16.01408004760742 0.5000600814819336 20.50006103515625 4.986040115356445 20.50006103515625 10.50006008148193 C 20.50006103515625 16.01408004760742 16.01408004760742 20.50006103515625 10.50006008148193 20.50006103515625 Z"/>
        <path class="cls-5" d="M 10.50006008148193 1.000059127807617 C 5.261739730834961 1.000059127807617 1.000059127807617 5.261739730834961 1.000059127807617 10.50006008148193 C 1.000059127807617 15.73838043212891 5.261739730834961 20.00006103515625 10.50006008148193 20.00006103515625 C 15.73838043212891 20.00006103515625 20.00006103515625 15.73838043212891 20.00006103515625 10.50006008148193 C 20.00006103515625 5.261739730834961 15.73838043212891 1.000059127807617 10.50006008148193 1.000059127807617 M 10.50006008148193 5.91278076171875e-05 C 16.29904937744141 5.91278076171875e-05 21.00006103515625 4.701070785522461 21.00006103515625 10.50006008148193 C 21.00006103515625 16.29904937744141 16.29904937744141 21.00006103515625 10.50006008148193 21.00006103515625 C 4.701070785522461 21.00006103515625 5.91278076171875e-05 16.29904937744141 5.91278076171875e-05 10.50006008148193 C 5.91278076171875e-05 4.701070785522461 4.701070785522461 5.91278076171875e-05 10.50006008148193 5.91278076171875e-05 Z"/>
      </g>
    </g>
    <line id="直线_14" data-name="直线 14" class="cls-2" y2="14" transform="translate(99.5 328.5)"/>
    <circle id="椭圆_52" data-name="椭圆 52" class="cls-3" cx="3.5" cy="3.5" r="3.5" transform="translate(96 316)"/>
  </g>
</svg>
