<svg xmlns="http://www.w3.org/2000/svg" width="12" height="12" viewBox="0 0 12 12">
  <defs>
    <style>
      .cls-1, .cls-4 {
        fill: none;
      }

      .cls-1 {
        stroke: #29c78f;
      }

      .cls-2 {
        fill: #29c78f;
      }

      .cls-3 {
        stroke: none;
      }
    </style>
  </defs>
  <g id="订单完成" transform="translate(-29 -108)">
    <g id="矩形_90" data-name="矩形 90" class="cls-1" transform="translate(29 108)">
      <rect class="cls-3" width="12" height="12" rx="2"/>
      <rect class="cls-4" x="0.5" y="0.5" width="11" height="11" rx="1.5"/>
    </g>
    <g id="_128._Check_mark" data-name="128. Check mark" transform="translate(30.916 111.277)">
      <path id="Fill_11" data-name="Fill 11" class="cls-2" d="M3.254,5.446A.476.476,0,0,1,2.91,5.3L.142,2.453a.513.513,0,0,1,0-.708.479.479,0,0,1,.688,0L3.6,4.591a.513.513,0,0,1,0,.708A.476.476,0,0,1,3.254,5.446Zm.979-.693h0a1.02,1.02,0,0,1,0-1.414L7.339.145a.479.479,0,0,1,.688,0,.512.512,0,0,1,0,.708l-3.793,3.9Z" transform="translate(0 0)"/>
    </g>
  </g>
</svg>
