<svg xmlns="http://www.w3.org/2000/svg" width="12" height="12" viewBox="0 0 12 12">
  <defs>
    <style>
      .cls-1 {
        fill: none;
      }

      .cls-2, .cls-4 {
        fill: red;
      }

      .cls-3, .cls-4 {
        stroke: none;
      }
    </style>
  </defs>
  <g id="订单完成" transform="translate(-29 -108)">
    <g id="路径_30" data-name="路径 30" class="cls-1" transform="translate(29 108)">
      <path class="cls-3" d="M2,0h8a2,2,0,0,1,2,2v8a2,2,0,0,1-2,2H2a2,2,0,0,1-2-2V2A2,2,0,0,1,2,0Z"/>
      <path class="cls-4" d="M 2 1 C 1.448599815368652 1 1 1.448599815368652 1 2 L 1 10 C 1 10.55140018463135 1.448599815368652 11 2 11 L 10 11 C 10.55140018463135 11 11 10.55140018463135 11 10 L 11 2 C 11 1.448599815368652 10.55140018463135 1 10 1 L 2 1 M 2 0 L 10 0 C 11.10457038879395 0 12 0.8954296112060547 12 2 L 12 10 C 12 11.10457038879395 11.10457038879395 12 10 12 L 2 12 C 0.8954296112060547 12 0 11.10457038879395 0 10 L 0 2 C 0 0.8954296112060547 0.8954296112060547 0 2 0 Z"/>
    </g>
    <g id="_121._Close" data-name="121. Close" transform="translate(30.966 109.027)">
      <path id="Fill_19" data-name="Fill 19" class="cls-2" d="M7.474,8A.524.524,0,0,1,7.1,7.847L4.259,5A1.054,1.054,0,0,1,5.748,5l2.1,2.1a.526.526,0,0,1-.372.9ZM.526,8a.525.525,0,0,1-.372-.153.529.529,0,0,1,0-.745L3.255,4,.153.9a.529.529,0,0,1,0-.745A.529.529,0,0,1,.9.153L4,3.255,7.1.153A.527.527,0,1,1,7.846.9L.9,7.847A.524.524,0,0,1,.526,8Z" transform="translate(0.034 0.973)"/>
    </g>
  </g>
</svg>
