<svg xmlns="http://www.w3.org/2000/svg" width="16" height="16" viewBox="0 0 16 16">
  <defs>
    <style>
      .cls-1 {
        fill: #082f40;
      }
    </style>
  </defs>
  <path id="Fill_169" data-name="Fill 169" class="cls-1" d="M8,16a.834.834,0,0,1-.833-.833V13.606A5.665,5.665,0,0,1,2.394,8.833H.833a.833.833,0,1,1,0-1.667H2.394A5.665,5.665,0,0,1,7.167,2.394V.833a.833.833,0,1,1,1.667,0V2.394a5.665,5.665,0,0,1,4.772,4.772h1.561a.833.833,0,0,1,0,1.667H13.606a5.664,5.664,0,0,1-4.772,4.772v1.561A.834.834,0,0,1,8,16ZM8,4a4,4,0,1,0,2.828,1.172A3.974,3.974,0,0,0,8,4ZM8,9.333A1.333,1.333,0,1,1,9.333,8,1.335,1.335,0,0,1,8,9.333Z"/>
</svg>
