<svg id="出货成功" xmlns="http://www.w3.org/2000/svg" xmlns:xlink="http://www.w3.org/1999/xlink" width="375" height="278" viewBox="0 0 375 278">
  <defs>
    <style>
      .cls-1 {
        fill: #082f40;
      }

      .cls-2, .cls-5 {
        fill: #fff;
      }

      .cls-3 {
        fill: rgba(41,199,143,0.62);
      }

      .cls-4 {
        fill: #29c78f;
      }

      .cls-5 {
        opacity: 0.266;
      }

      .cls-6 {
        filter: url(#椭圆_44);
      }
    </style>
    <filter id="椭圆_44" x="127" y="156" width="122" height="122" filterUnits="userSpaceOnUse">
      <feOffset dy="1" input="SourceAlpha"/>
      <feGaussianBlur stdDeviation="5" result="blur"/>
      <feFlood flood-color="#4e4e4e" flood-opacity="0.235"/>
      <feComposite operator="in" in2="blur"/>
      <feComposite in="SourceGraphic"/>
    </filter>
  </defs>
  <path id="路径_23" data-name="路径 23" class="cls-1" d="M0,0H375V278s-94.164-66.889-187.914-66.889S0,278,0,278Z"/>
  <g class="cls-6" transform="matrix(1, 0, 0, 1, 0, 0)">
    <circle id="椭圆_44-2" data-name="椭圆 44" class="cls-2" cx="46" cy="46" r="46" transform="translate(142 170)"/>
  </g>
  <g id="出货成功-2" data-name="出货成功">
    <rect id="矩形_85" data-name="矩形 85" class="cls-3" width="26.158" height="6.54" rx="3.27" transform="translate(171.27 210.977) rotate(45)"/>
    <rect id="矩形_84" data-name="矩形 84" class="cls-4" width="43.597" height="6.54" rx="3.27" transform="translate(216.344 203.27) rotate(135)"/>
  </g>
  <circle id="椭圆_46" data-name="椭圆 46" class="cls-5" cx="11.5" cy="11.5" r="11.5" transform="translate(35 143)"/>
  <circle id="椭圆_47" data-name="椭圆 47" class="cls-5" cx="11.5" cy="11.5" r="11.5" transform="translate(268 165)"/>
  <path id="路径_24" data-name="路径 24" class="cls-2" d="M499.478,3086.1l-1.426,3.986-3.854.308,3.62,1.555.452,3.87,1.435-3.615,4.177-.683-3.972-1.285Z" transform="matrix(0.995, -0.105, 0.105, 0.995, -662.466, -2869.852)"/>
  <path id="路径_26" data-name="路径 26" class="cls-2" d="M498.8,3086.1l-1.243,3.5-3.359.271,3.156,1.367.394,3.4,1.251-3.178,3.641-.6-3.463-1.13Z" transform="matrix(0.995, -0.105, 0.105, 0.995, -591.343, -2863.686)"/>
  <path id="路径_27" data-name="路径 27" class="cls-2" d="M499.8,3086.1l-1.514,4.57-4.092.353,3.844,1.783.48,4.437,1.524-4.145,4.435-.784-4.218-1.474Z" transform="matrix(0.995, -0.105, 0.105, 0.995, -571.615, -2814.269)"/>
  <path id="路径_25" data-name="路径 25" class="cls-2" d="M496.61,3086.1l-.651,1.837-1.76.142,1.654.716.206,1.783.656-1.666,1.908-.315-1.814-.592Z" transform="matrix(0.995, -0.105, 0.105, 0.995, -683.918, -2809.641)"/>
</svg>
