<svg xmlns="http://www.w3.org/2000/svg" xmlns:xlink="http://www.w3.org/1999/xlink" width="15.489" height="12.255" viewBox="0 0 15.489 12.255">
  <defs>
    <style>
      .cls-1 {
        fill: url(#linear-gradient);
      }
    </style>
    <linearGradient id="linear-gradient" x1="0.5" x2="0.5" y2="1" gradientUnits="objectBoundingBox">
      <stop offset="0" stop-color="#9eb1bd"/>
      <stop offset="1" stop-color="#75808f"/>
    </linearGradient>
  </defs>
  <g id="vip" transform="translate(1430 1672.769)">
    <g id="_33._Crown" data-name="33. Crown" transform="translate(-1430 -1672.769)">
      <path id="Fill_150" data-name="Fill 150" class="cls-1" d="M7.649,1.739a.157.157,0,0,0-.058.079L6.276,5.138a1.409,1.409,0,0,1-2.36.492L1.89,3.475A.144.144,0,0,0,1.8,3.421a.164.164,0,0,0-.1.026.183.183,0,0,0-.074.079.167.167,0,0,0,0,.111L2.626,7.988a1.723,1.723,0,0,1-1.179,2.073L.056,4.046A1.785,1.785,0,0,1,3.028,2.263L4.885,4.239,6.106,1.153a1.732,1.732,0,0,1,3.264,0l1.2,3.044,1.848-2.1a1.775,1.775,0,0,1,3.043,1.575l-.926,6.4a2.467,2.467,0,0,1-2.387,2.179H2.747a.858.858,0,0,1,0-1.713h9.407a.822.822,0,0,0,.8-.726l.926-6.4a.163.163,0,0,0-.013-.108.18.18,0,0,0-.076-.072.168.168,0,0,0-.1-.019.145.145,0,0,0-.088.056l-2.018,2.29A1.409,1.409,0,0,1,9.188,5.1l-1.3-3.287a.157.157,0,0,0-.059-.079.17.17,0,0,0-.18,0" transform="translate(0)"/>
    </g>
  </g>
</svg>
