<svg xmlns="http://www.w3.org/2000/svg" width="16" height="16" viewBox="0 0 16 16">
  <defs>
    <style>
      .cls-1 {
        fill: #082f40;
      }

      .cls-2 {
        fill: rgba(255,255,255,0);
      }
    </style>
  </defs>
  <g id="关闭" transform="translate(-142 -2174)">
    <g id="_73._Sound" data-name="73. Sound" transform="translate(142 2175)">
      <path id="Fill_88" data-name="Fill 88" class="cls-1" d="M2.324,3.462l-.952.951A.8.8,0,0,1,.235,3.276l.953-.951L.235,1.374A.8.8,0,0,1,1.371.236l.952.951L3.277.236A.8.8,0,0,1,4.413,1.374l-.952.951.952.951A.8.8,0,0,1,3.277,4.414l-.953-.951" transform="translate(11.352 4.489)"/>
      <path id="Fill_93" data-name="Fill 93" class="cls-1" d="M9.378.376A1,1,0,0,1,9.214,1.74L4.991,5.14a1.28,1.28,0,0,1-.806.288H2.438a.573.573,0,0,0-.563.583V7.954a.573.573,0,0,0,.563.583H4.185a1.279,1.279,0,0,1,.805.288l3.262,2.623v-6.8a1.91,1.91,0,0,1,1.876-1.943v9.929A1.312,1.312,0,0,1,8.01,13.713L3.993,10.48H2.438A2.483,2.483,0,0,1,0,7.954V6.011A2.483,2.483,0,0,1,2.438,3.485H3.992L8.062.2A.916.916,0,0,1,9.378.376" transform="translate(0 0)"/>
    </g>
    <rect id="矩形_100" data-name="矩形 100" class="cls-2" width="16" height="16" transform="translate(142 2174)"/>
  </g>
</svg>
